<?xml version="1.0" standalone="no"?> <!DOCTYPE svg PUBLIC "-//W3C//DTD SVG 1.0//EN" "http://www.w3.org/TR/2001/REC-SVG-20010904/DTD/svg10.dtd" > <svg xmlns="http://www.w3.org/2000/svg" width="100%" height="100%">
<defs >
<font id="bariolregular" horiz-adv-x="800" ><font-face
    font-family="Bariol Regular"
    units-per-em="2048"
    panose-1="2 0 5 6 4 0 0 2 0 3"
    ascent="2078"
    descent="-556"
    alphabetic="0" />
<missing-glyph horiz-adv-x="748" d="M68 0V1365H612V0H68ZM136 68H544V1297H136V68Z" />
<glyph unicode=" " glyph-name="space" horiz-adv-x="487" />
<glyph unicode="!" glyph-name="exclam" horiz-adv-x="425" d="M117 80Q117 178 213 178T309 80Q309 -16 213 -16T117 80ZM141 1323Q138 1395 213 1395T285 1323L254 358Q254 322 213 322T172 358L141 1323Z" />
<glyph unicode="&quot;" glyph-name="quotedbl" horiz-adv-x="573" d="M115 1339Q113 1365 127 1380T172 1395T216 1380T229 1339L211 987Q208 952 172 952T133 987L115 1339ZM344 1339Q342 1365 356 1380T401 1395T446 1380T459 1339L440 987Q437 952 401 952T362
987L344 1339Z" />
<glyph unicode="#" glyph-name="numbersign" horiz-adv-x="1126" d="M94 463T94 483T108 517T143 532H289L332 811H188Q168 811 154 825T139 860T153 894T188 909H348L406 1292Q409 1311 423 1323T457 1335Q479 1335 493 1321T508 1284Q508 1276 506 1266L453
909H737L795 1292Q798 1311 812 1323T846 1335Q868 1335 882 1321T897 1284Q897 1276 895 1266L842 909H983Q1003 909 1017 895T1032 860T1018 826T983 811H825L782 532H938Q958 532 972 518T987 483T973 449T938 434H766L702 20Q699 1 685 -11T651 -23Q629 -23
615 -8T600 29Q600 37 602 47L662 434H377L313 20Q310 1 296 -11T262 -23Q240 -23 226 -8T211 29Q211 37 213 47L272 434H143Q123 434 109 448ZM393 532H678L721 811H436L393 532Z" />
<glyph unicode="$" glyph-name="dollar" horiz-adv-x="1142" d="M74 260Q74 288 92 307T139 326Q177 326 197 293Q251 206 342 152T561 98Q731 98 822 166T913 369Q913 430 887 477T815 554T712 609T590 654T462 696T340 748T237 818T166 918T139 1057Q139 1197
235 1294T518 1405V1561Q518 1583 533 1598T571 1614T609 1599T625 1561V1405Q752 1396 852 1341T1014 1196Q1026 1178 1026 1157Q1026 1129 1008 1111T961 1092Q928 1092 907 1118Q777 1280 575 1280Q424 1280 352 1217T279 1057Q279 1003 305 961T377 890T480
838T602 793T730 748T852 691T955 616T1026 511T1053 369Q1053 190 942 89T625 -27V-180Q625 -202 609 -217T571 -233T534 -218T518 -180V-27Q366 -18 252 52T84 223Q74 243 74 260Z" />
<glyph unicode="%" glyph-name="percent" horiz-adv-x="1527" d="M86 1073Q86 1225 157 1316T385 1407Q466 1407 525 1382T619 1310T670 1205T686 1073Q686 1001 670 943T620 838T526 765T385 739Q229 739 158 831T86 1073ZM188 1073Q188 834 385 834Q584 834
584 1073Q584 1313 385 1313Q188 1313 188 1073ZM379 35Q379 47 383 55L1051 1368Q1064 1395 1096 1395Q1118 1395 1132 1380T1147 1343Q1147 1331 1143 1323L475 10Q462 -16 430 -16Q408 -16 394 -2T379 35ZM844 307Q844 459 915 550T1143 641Q1224 641 1283 616T1377
544T1428 439T1444 307Q1444 235 1428 177T1378 72T1284 -1T1143 -27Q987 -27 916 65T844 307ZM946 307Q946 68 1143 68Q1341 68 1341 307Q1341 360 1332 400T1302 475T1240 528T1143 547Q946 547 946 307Z" />
<glyph unicode="&amp;" glyph-name="ampersand" horiz-adv-x="1261" d="M90 358Q90 473 145 562T315 733Q221 908 221 1092Q221 1230 298 1318T512 1407Q633 1407 709 1334T786 1133Q786 1011 708 910T481 696Q605 497 889 285Q943 364 973 492Q978 512 995 525T1034
539Q1060 539 1079 520T1098 475Q1098 455 1092 434Q1060 310 993 207Q1012 195 1030 185T1060 168T1093 151T1122 138T1157 122T1194 106Q1235 89 1235 47Q1235 21 1216 3T1171 -16Q1134 -16 1048 27T909 109Q758 -29 528 -29Q404 -29 306 14T149 147T90 358ZM221
358Q221 238 311 164T528 90Q610 90 682 119T803 190Q648 311 549 408T379 621Q221 518 221 358ZM352 1092Q352 932 420 803Q518 869 586 961T655 1133Q655 1206 615 1247T512 1288Q433 1288 393 1234T352 1092Z" />
<glyph unicode="&apos;" glyph-name="quotesingle" horiz-adv-x="344" d="M115 1339Q113 1365 127 1380T172 1395T216 1380T229 1339L211 987Q208 952 172 952T133 987L115 1339Z" />
<glyph unicode="(" glyph-name="parenleft" horiz-adv-x="602" d="M123 318T123 606T156 1069T264 1345T471 1505Q486 1511 498 1511Q521 1511 538 1494T555 1454Q555 1417 518 1401Q480 1383 449 1362T393 1313T349 1258T316 1193T291 1121T274 1037T263 947T257
843T255 731T254 606T254 481T257 370T263 266T274 175T291 92T315 20T349 -45T393 -99T449 -148T518 -188Q555 -204 555 -242Q555 -265 538 -282T498 -299Q486 -299 471 -293Q338 -234 264 -133T157 143Z" />
<glyph unicode=")" glyph-name="parenright" horiz-adv-x="602" d="M47 -242Q47 -204 84 -188Q122 -170 153 -149T209 -100T253 -45T286 20T311 91T328 175T339 266T345 369T347 481T348 606T348 731T345 843T339 946T328 1037T311 1120T287 1192T253 1258T209
1312T153 1361T84 1401Q47 1417 47 1454Q47 1477 64 1494T104 1511Q116 1511 131 1505Q264 1446 338 1345T445 1069T479 606T446 143T338 -133T131 -293Q116 -299 104 -299Q81 -299 64 -282T47 -242Z" />
<glyph unicode="*" glyph-name="asterisk" horiz-adv-x="731" d="M59 1233Q63 1254 78 1262T113 1264L328 1200L319 1417Q319 1458 365 1458Q410 1458 410 1417L401 1200L616 1264Q635 1270 650 1262T670 1233Q679 1187 639 1178L432 1130L563 950Q587 916 551
891Q514 865 492 903L365 1094L238 903Q215 865 178 891Q142 916 166 950L297 1130L90 1178Q50 1187 59 1233Z" />
<glyph unicode="+" glyph-name="plus" horiz-adv-x="929" d="M0 423T0 446T16 485T55 502H406V852Q406 877 423 894T465 911T507 894T524 852V502H874Q897 502 913 486T930 446T914 407T874 391H524V43Q524 18 507 1T465 -16T423 1T406 43V391H55Q32 391 16 407Z" />
<glyph unicode="," glyph-name="comma" horiz-adv-x="331" d="M59 -301Q59 -294 66 -283Q106 -227 123 -187T141 -96Q141 -70 130 -48T105 -11T80 28T68 80Q68 178 164 178Q264 178 264 47Q264 -57 225 -152T117 -319Q104 -332 90 -332Q78 -332 69 -323T59 -301Z" />
<glyph unicode="-" glyph-name="hyphen" horiz-adv-x="745" d="M113 493T113 516T129 555T168 571H578Q601 571 617 555T633 516T617 477T578 461H168Q145 461 129 477Z" />
<glyph unicode="." glyph-name="period" horiz-adv-x="327" d="M68 80Q68 178 164 178T260 80Q260 -16 164 -16T68 80Z" />
<glyph unicode="/" glyph-name="slash" horiz-adv-x="833" d="M78 -135Q78 -122 84 -104L625 1491Q639 1538 688 1538Q716 1538 735 1520T754 1473Q754 1460 748 1442L207 -154Q193 -201 143 -201Q115 -201 97 -182T78 -135Z" />
<glyph unicode="0" glyph-name="zero" horiz-adv-x="1232" d="M111 690Q111 1058 234 1232T616 1407Q875 1407 998 1233T1122 690T998 147T616 -29T235 146T111 690ZM246 1005T246 690T335 235T616 94T897 234T987 690T898 1144T616 1284Q424 1284 335 1145Z" />
<glyph unicode="1" glyph-name="one" horiz-adv-x="718" d="M76 1102Q76 1138 104 1157L426 1380Q447 1395 467 1395Q495 1395 515 1375T535 1327V51Q535 23 515 4T467 -16T419 3T399 51V1206L180 1049Q160 1036 141 1036Q115 1036 96 1056T76 1102Z" />
<glyph unicode="2" glyph-name="two" horiz-adv-x="1089" d="M86 63Q86 135 112 199T182 313T283 409T404 497T530 579T650 666T752 761T822 874T848 1008Q848 1130 769 1207T547 1284Q486 1284 438 1270T355 1228T298 1169T256 1096Q238 1055 197 1055Q171 1055
152 1073T133 1118Q133 1129 137 1141Q179 1267 285 1337T547 1407Q751 1407 868 1299T985 1008Q985 908 943 818T834 661T686 533T524 422T376 324T267 227T225 127H940Q966 127 985 108T1004 63T985 19T940 0H150Q124 0 105 18T86 63Z" />
<glyph unicode="3" glyph-name="three" horiz-adv-x="1110" d="M72 238Q72 264 89 281T133 299Q168 299 188 266Q292 94 522 94Q690 94 775 171T860 393Q860 713 551 713H408Q382 713 364 730T346 774Q346 798 362 817L739 1255H211Q185 1255 168 1273T150 1317T167
1360T211 1378H879Q905 1378 922 1361T940 1317Q940 1293 924 1274L541 836H561Q658 836 734 812T858 746T938 648T982 528T995 393Q995 190 874 81T522 -29Q222 -29 82 203Q72 220 72 238Z" />
<glyph unicode="4" glyph-name="four" horiz-adv-x="1105" d="M53 381Q53 401 68 422L727 1364Q749 1393 782 1393Q810 1393 830 1373T850 1325V444H967Q995 444 1013 427T1032 383Q1032 355 1014 336T967 317H850V51Q850 23 830 4T782 -16T735 3T715 51V317H117Q91
317 72 336T53 381ZM236 444H715V1133L236 444Z" />
<glyph unicode="5" glyph-name="five" horiz-adv-x="1136" d="M76 279Q76 305 94 323T139 342Q177 342 197 307Q264 196 347 147T557 98Q715 98 806 182T897 444Q897 617 806 702T557 788Q447 788 373 760T229 664Q202 637 174 637Q148 637 130 655T111 700Q111
707 115 727L233 1329Q236 1348 253 1363T295 1378H918Q944 1378 962 1360T981 1315T963 1270T918 1251H340L258 831Q375 913 557 913Q777 913 904 796T1032 444Q1032 207 905 89T557 -29Q390 -29 269 43T84 248Q76 264 76 279Z" />
<glyph unicode="6" glyph-name="six" horiz-adv-x="1159" d="M98 657Q98 1407 612 1407Q724 1407 812 1373T942 1294Q963 1273 963 1247T944 1203T899 1184Q877 1184 856 1200Q743 1284 612 1284Q233 1284 233 707Q281 779 376 833T596 887Q806 887 933 772T1061
432Q1061 311 1027 221T928 77T778 -3T584 -29Q459 -29 365 21T213 164T127 380T98 657ZM244 541Q244 341 332 218T584 94Q926 94 926 432Q926 600 835 682T596 764Q369 764 244 541Z" />
<glyph unicode="7" glyph-name="seven" horiz-adv-x="989" d="M51 1289T51 1315T70 1359T115 1378H879Q905 1378 923 1360T942 1315Q942 1221 910 1135T827 977T713 834T588 681T474 513T390 305T358 49Q358 21 340 3T293 -16T246 2T227 49Q227 187 259 312T342
530T454 707T577 861T690 993T773 1122T805 1251H115Q89 1251 70 1270Z" />
<glyph unicode="8" glyph-name="eight" horiz-adv-x="1134" d="M88 389Q88 520 151 615T330 754Q150 850 150 1051Q150 1229 261 1318T567 1407T873 1318T985 1051Q985 850 805 754Q920 711 983 616T1047 389Q1047 185 917 78T567 -29T218 78T88 389ZM223 389Q223
241 315 168T567 94T818 167T911 389Q911 538 822 612T567 686T313 612T223 389ZM285 1051Q285 932 360 871T567 809T774 870T850 1051Q850 1167 776 1225T567 1284T359 1226T285 1051Z" />
<glyph unicode="9" glyph-name="nine" horiz-adv-x="1159" d="M98 946Q98 1067 132 1157T231 1301T381 1381T575 1407Q700 1407 794 1357T946 1214T1032 998T1061 721Q1061 -29 547 -29Q435 -29 347 5T217 84Q197 104 197 131Q197 157 215 176T260 195Q280 195
303 178Q416 94 547 94Q926 94 926 672Q878 600 783 546T563 492Q461 492 377 519T230 602T133 744T98 946ZM233 946Q233 778 324 696T563 614Q790 614 915 838Q915 1038 827 1161T575 1284Q233 1284 233 946Z" />
<glyph unicode=":" glyph-name="colon" horiz-adv-x="327" d="M68 80Q68 178 164 178T260 80Q260 -16 164 -16T68 80ZM68 836Q68 934 164 934T260 836Q260 739 164 739T68 836Z" />
<glyph unicode=";" glyph-name="semicolon" horiz-adv-x="327" d="M59 -301Q59 -294 66 -283Q106 -227 123 -187T141 -96Q141 -70 130 -48T105 -11T80 28T68 80Q68 178 164 178Q264 178 264 47Q264 -57 225 -152T117 -319Q104 -332 90 -332Q78 -332 69 -323T59
-301ZM68 836Q68 934 164 934T260 836Q260 739 164 739T68 836Z" />
<glyph unicode="&lt;" glyph-name="less" horiz-adv-x="690" d="M0 453T0 481T27 528L602 983Q615 993 635 993Q658 993 674 977T690 938Q690 909 668 893L135 481L668 70Q690 54 690 25Q690 2 674 -14T635 -31Q617 -31 602 -20L27 434Q0 453 0 481Z" />
<glyph unicode="=" glyph-name="equal" horiz-adv-x="929" d="M0 266T0 289T16 328T55 344H874Q897 344 913 328T930 289T914 250T874 233H55Q32 233 16 249ZM0 579T0 602T16 641T55 657H874Q897 657 913 641T930 602T914 563T874 547H55Q32 547 16 563Z" />
<glyph unicode="&gt;" glyph-name="greater" horiz-adv-x="690" d="M0 25Q0 53 23 70L555 481L23 893Q0 910 0 938Q0 961 16 977T55 993Q75 993 88 983L664 528Q690 509 690 481T664 434L88 -20Q73 -31 55 -31Q32 -31 16 -15T0 25Z" />
<glyph unicode="?" glyph-name="question" horiz-adv-x="944" d="M70 1040Q70 1211 174 1309T467 1407Q658 1407 765 1317T872 1061Q872 988 849 926T789 821T707 742T617 676T535 621T474 563T451 498Q451 460 479 416Q496 390 496 371Q496 341 475 322T428 303Q400
303 379 324Q313 390 313 498Q313 552 336 596T398 673T481 735T572 796T656 863T717 949T741 1061Q741 1173 669 1229T467 1286Q343 1286 274 1225T205 1040Q205 1012 185 993T137 973T90 992T70 1040ZM324 80Q324 178 420 178T516 80Q516 -16 420 -16T324 80Z"
/>
<glyph unicode="@" glyph-name="at" horiz-adv-x="1640" d="M82 352Q82 725 272 910T817 1096Q979 1096 1113 1053T1348 924T1503 705T1559 399Q1559 340 1552 288T1523 179T1466 80T1370 13T1229 -14Q1066 -14 1012 111Q933 -14 768 -14Q649 -14 572 45T494 209Q494
312 564 371T760 430H997V481Q997 556 945 597T807 639Q700 639 627 555Q609 537 586 537Q566 537 552 551T537 586Q537 603 547 616Q635 735 807 735Q949 735 1022 664T1096 471V221Q1096 139 1129 106T1229 72Q1344 72 1400 145T1456 399Q1456 554 1411 671T1282
861T1081 970T817 1006Q667 1006 553 971T355 859T228 655T184 352T227 49T355 -153T553 -264T817 -299Q1120 -299 1290 -186Q1302 -178 1317 -178Q1336 -178 1350 -191T1364 -225Q1364 -249 1343 -264Q1231 -333 1107 -361T817 -389Q463 -389 273 -205T82 352ZM596
209Q596 146 642 111T776 76Q865 76 931 128T997 274V342H760Q683 342 640 309T596 209Z" />
<glyph unicode="A" glyph-name="A" horiz-adv-x="1255" d="M55 53Q55 72 61 84L561 1348Q580 1395 627 1395Q675 1395 694 1348L1194 84Q1200 69 1200 53Q1200 24 1180 4T1128 -16Q1078 -16 1061 31L913 408H342L193 33Q175 -16 125 -16Q96 -16 76 4T55 53ZM385
535H870L627 1161L385 535Z" />
<glyph unicode="B" glyph-name="B" horiz-adv-x="1148" d="M164 70V1309Q164 1338 184 1358T233 1378H582Q792 1378 895 1282T999 1014Q999 914 944 837T801 735Q919 705 991 620T1063 393Q1063 212 953 106T643 0H233Q205 0 185 20T164 70ZM303 127H641Q779 127
850 197T922 393Q922 518 847 587T641 657H303V127ZM303 776H580Q714 776 786 840T858 1014Q858 1127 789 1189T580 1251H303V776Z" />
<glyph unicode="C" glyph-name="C" horiz-adv-x="1292" d="M90 688Q90 1045 257 1226T729 1407Q874 1407 995 1349T1190 1190Q1204 1170 1204 1147Q1204 1119 1186 1100T1139 1081Q1107 1081 1085 1108Q1030 1184 935 1232T729 1280Q489 1280 361 1132T233 688Q233
378 358 238T729 98Q836 98 931 140T1085 266Q1104 293 1139 293Q1167 293 1185 274T1204 227Q1204 206 1192 188Q1125 90 998 31T729 -29Q421 -29 256 146T90 688Z" />
<glyph unicode="D" glyph-name="D" horiz-adv-x="1245" d="M164 70V1309Q164 1338 184 1358T233 1378H522Q673 1378 786 1341T984 1224T1112 1009T1155 688T1112 368T985 154T787 37T522 0H233Q204 0 184 20T164 70ZM303 127H522Q641 127 728 155T881 247T980
421T1014 688Q1014 843 981 953T882 1128T728 1222T522 1251H303V127Z" />
<glyph unicode="E" glyph-name="E" horiz-adv-x="1060" d="M164 70V1309Q164 1338 184 1358T233 1378H891Q917 1378 935 1360T954 1315T936 1270T891 1251H303V758H754Q780 758 798 739T817 694T799 650T754 631H303V127H913Q939 127 958 108T977 63T958 19T913
0H233Q204 0 184 20T164 70Z" />
<glyph unicode="F" glyph-name="F" horiz-adv-x="1060" d="M164 53V1309Q164 1338 184 1358T233 1378H891Q917 1378 935 1360T954 1315T936 1270T891 1251H303V741H754Q780 741 798 723T817 678T799 633T754 614H303V53Q303 24 283 4T233 -16T184 4T164 53Z" />
<glyph unicode="G" glyph-name="G" horiz-adv-x="1357" d="M90 688Q90 1045 257 1226T729 1407Q874 1407 995 1349T1190 1190Q1204 1170 1204 1147Q1204 1119 1186 1100T1139 1081Q1107 1081 1085 1108Q1030 1184 936 1232T729 1280Q489 1280 361 1132T233 688Q233
378 358 238T729 98Q861 98 956 144T1110 262V559H768Q742 559 724 578T705 623T723 667T768 686H1182Q1207 686 1226 668T1245 623V264Q1245 230 1219 197Q1132 95 1016 33T729 -29Q421 -29 256 146T90 688Z" />
<glyph unicode="H" glyph-name="H" horiz-adv-x="1318" d="M164 53V1325Q164 1353 184 1374T233 1395T282 1374T303 1325V770H1016V1325Q1016 1353 1036 1374T1085 1395T1134 1374T1155 1325V53Q1155 25 1135 5T1085 -16T1036 4T1016 53V643H303V53Q303 25 283
5T233 -16T184 4T164 53Z" />
<glyph unicode="I" glyph-name="I" horiz-adv-x="466" d="M164 53V1325Q164 1353 184 1374T233 1395T282 1374T303 1325V53Q303 25 283 5T233 -16T184 4T164 53Z" />
<glyph unicode="J" glyph-name="J" horiz-adv-x="845" d="M33 82Q33 110 52 130T100 150Q112 150 141 137Q206 104 293 104Q422 104 482 188T543 416V1325Q543 1353 563 1374T612 1395T661 1374T682 1325V416Q682 319 661 241T595 102T474 7T293 -27Q152 -27 72
20Q33 42 33 82Z" />
<glyph unicode="K" glyph-name="K" horiz-adv-x="1134" d="M164 53V1325Q164 1354 184 1374T233 1395T282 1375T303 1325V686L899 1368Q921 1395 954 1395Q983 1395 1004 1374T1026 1323Q1026 1297 1006 1274L578 795L1073 96Q1087 75 1087 53Q1087 24 1067 4T1018
-16Q981 -16 958 16L483 692L303 489V53Q303 24 283 4T233 -16T184 4T164 53Z" />
<glyph unicode="L" glyph-name="L" horiz-adv-x="989" d="M164 70V1325Q164 1354 184 1374T233 1395T282 1375T303 1325V131H864Q892 131 911 113T930 66T911 19T864 0H233Q204 0 184 20T164 70Z" />
<glyph unicode="M" glyph-name="M" horiz-adv-x="1558" d="M143 51V1327Q143 1355 163 1375T211 1395Q252 1395 272 1356L768 428L1266 1356Q1288 1395 1327 1395Q1355 1395 1375 1375T1395 1327V51Q1395 23 1375 4T1327 -16T1280 3T1260 51V1059L829 262Q809
223 768 223Q726 223 707 262L279 1059V51Q279 23 259 4T211 -16T163 3T143 51Z" />
<glyph unicode="N" glyph-name="N" horiz-adv-x="1269" d="M143 51V1327Q143 1355 163 1375T211 1395Q245 1395 266 1366L991 276V1327Q991 1355 1011 1375T1059 1395T1106 1375T1126 1327V53Q1126 24 1106 4T1057 -16Q1021 -16 999 12L279 1100V51Q279 23 259
4T211 -16T163 3T143 51Z" />
<glyph unicode="O" glyph-name="O" horiz-adv-x="1458" d="M90 688Q90 1045 257 1226T729 1407T1200 1226T1368 688Q1368 334 1201 153T729 -29T258 152T90 688ZM233 688Q233 394 361 246T729 98T1096 246T1225 688Q1225 984 1097 1132T729 1280T362 1132T233 688Z" />
<glyph unicode="P" glyph-name="P" horiz-adv-x="1114" d="M164 53V1309Q164 1338 184 1358T233 1378H641Q814 1378 923 1277T1032 979Q1032 785 924 682T641 578H303V53Q303 24 283 4T233 -16T184 4T164 53ZM303 705H621Q747 705 819 776T891 979T819 1181T621
1251H303V705Z" />
<glyph unicode="Q" glyph-name="Q" horiz-adv-x="1458" d="M90 688Q90 1045 257 1226T729 1407T1200 1226T1368 688Q1368 433 1280 267T1028 27Q1124 -15 1176 -80Q1196 -106 1196 -131Q1196 -159 1176 -179T1126 -199Q1098 -199 1075 -176Q1024 -119 988 -92T888
-47T729 -29Q425 -29 258 152T90 688ZM233 688Q233 394 361 246T729 98T1096 246T1225 688Q1225 984 1097 1132T729 1280T362 1132T233 688Z" />
<glyph unicode="R" glyph-name="R" horiz-adv-x="1118" d="M164 53V1309Q164 1338 184 1358T233 1378H641Q810 1378 921 1266T1032 987Q1032 826 931 715T666 596L1040 96Q1055 78 1055 53Q1055 24 1035 4T985 -16Q946 -16 926 16L510 596H303V53Q303 24 283 4T233
-16T184 4T164 53ZM303 723H645Q751 723 821 799T891 987Q891 1101 820 1176T639 1251H303V723Z" />
<glyph unicode="S" glyph-name="S" horiz-adv-x="1142" d="M74 260Q74 288 92 307T139 326Q177 326 197 293Q251 206 342 152T561 98Q731 98 822 166T913 369Q913 430 887 477T815 554T712 609T590 654T462 696T340 748T237 818T166 918T139 1057Q139 1208 250
1307T575 1407Q719 1407 833 1351T1014 1196Q1026 1178 1026 1157Q1026 1129 1008 1111T961 1092Q928 1092 907 1118Q777 1280 575 1280Q424 1280 352 1217T279 1057Q279 1003 305 961T377 890T480 838T602 793T730 748T852 691T955 616T1026 511T1053 369Q1053
177 926 74T561 -29Q395 -29 268 43T84 223Q74 243 74 260Z" />
<glyph unicode="T" glyph-name="T" horiz-adv-x="1101" d="M49 1285T49 1313T68 1359T115 1378H985Q1013 1378 1032 1360T1051 1313T1032 1266T985 1247H621V53Q621 24 601 4T551 -16T502 4T481 53V1247H115Q87 1247 68 1266Z" />
<glyph unicode="U" glyph-name="U" horiz-adv-x="1277" d="M164 420V1325Q164 1354 184 1374T233 1395T282 1375T303 1325V420Q303 367 311 324T342 239T402 167T501 120T645 102T788 120T886 167T946 238T977 324T985 420V1325Q985 1354 1005 1374T1055 1395T1104
1375T1124 1325V420Q1124 -29 645 -29Q533 -29 447 -4T309 63T223 165T177 286T164 420Z" />
<glyph unicode="V" glyph-name="V" horiz-adv-x="1179" d="M39 1325Q39 1354 59 1374T109 1395Q135 1395 151 1381T174 1350L590 248L1006 1350Q1012 1366 1028 1380T1071 1395Q1100 1395 1120 1375T1141 1325Q1141 1312 1135 1294L655 31Q648 10 630 -3T590 -16T550
-3T524 31L45 1294Q39 1312 39 1325Z" />
<glyph unicode="W" glyph-name="W" horiz-adv-x="1675" d="M41 1325Q41 1354 61 1374T111 1395Q138 1395 155 1379T178 1343L477 285L770 1343Q776 1367 795 1381T838 1395T880 1381T905 1343L1198 285L1497 1343Q1502 1363 1520 1379T1565 1395Q1594 1395 1614
1375T1634 1325Q1634 1316 1630 1300L1268 35Q1262 12 1243 -2T1200 -16Q1175 -16 1157 -2T1133 37L838 1079L543 37Q537 12 519 -2T475 -16Q451 -16 433 -2T408 35L45 1300Q41 1316 41 1325Z" />
<glyph unicode="X" glyph-name="X" horiz-adv-x="1024" d="M14 53Q14 72 25 90L434 707L49 1288Q39 1301 39 1325Q39 1354 59 1374T109 1395Q146 1395 170 1360L512 836L854 1360Q878 1395 915 1395Q944 1395 964 1375T985 1325Q985 1301 975 1288L590 707L999
90Q1010 72 1010 53Q1010 24 990 4T940 -16Q901 -16 885 10L512 582L139 10Q123 -16 84 -16Q55 -16 35 4T14 53Z" />
<glyph unicode="Y" glyph-name="Y" horiz-adv-x="1060" d="M39 1325Q39 1354 59 1374T109 1395Q148 1395 168 1362L530 780L893 1362Q913 1395 952 1395Q981 1395 1001 1375T1022 1325Q1022 1305 1012 1288L600 641V53Q600 24 580 4T530 -16T481 4T461 53V641L49
1288Q39 1305 39 1325Z" />
<glyph unicode="Z" glyph-name="Z" horiz-adv-x="1050" d="M35 66Q35 86 47 104L809 1247H143Q115 1247 97 1266T78 1313T96 1359T143 1378H930Q958 1378 976 1360T995 1313Q995 1292 983 1274L227 131H961Q989 131 1007 113T1026 66T1008 19T961 0H100Q72 0 54
19T35 66Z" />
<glyph unicode="[" glyph-name="bracketleft" horiz-adv-x="530" d="M164 -233V1446Q164 1474 182 1492T229 1511H436Q458 1511 473 1496T489 1458T474 1421T436 1405H295V-193H436Q458 -193 473 -208T489 -246T474 -283T436 -299H229Q201 -299 183 -280T164 -233Z" />
<glyph unicode="\" glyph-name="backslash" horiz-adv-x="833" d="M80 1473Q80 1501 98 1519T145 1538Q195 1538 209 1491L750 -104Q756 -122 756 -135Q756 -163 737 -182T690 -201Q641 -201 627 -154L86 1442Q80 1460 80 1473Z" />
<glyph unicode="]" glyph-name="bracketright" horiz-adv-x="530" d="M41 -268T41 -246T56 -209T94 -193H236V1405H94Q72 1405 57 1420T41 1458T56 1495T94 1511H301Q329 1511 348 1493T367 1446V-233Q367 -261 348 -280T301 -299H94Q72 -299 57 -284Z" />
<glyph unicode="^" glyph-name="asciicircum" horiz-adv-x="958" d="M80 752Q80 766 86 778L432 1389Q447 1415 479 1415T526 1389L872 778Q879 764 879 752Q879 729 863 713T823 696Q791 696 776 723L479 1257L182 723Q167 696 135 696Q112 696 96 712T80 752Z" />
<glyph unicode="_" glyph-name="underscore" horiz-adv-x="831" d="M-43 -166T-43 -143T-27 -104T12 -88H819Q842 -88 858 -104T874 -143T858 -182T819 -199H12Q-11 -199 -27 -183Z" />
<glyph unicode="`" glyph-name="grave" horiz-adv-x="757" d="M250 1270Q213 1307 256 1348Q282 1368 301 1367T334 1348L516 1126Q543 1091 510 1065Q478 1040 449 1069L250 1270Z" />
<glyph unicode="a" glyph-name="a" horiz-adv-x="956" d="M70 266Q70 401 166 478T428 555H717V610Q717 714 652 775T475 836Q395 836 341 811T238 731Q213 702 184 702Q159 702 142 719T125 762Q125 780 135 797Q181 870 267 914T475 958Q651 958 747 864T844
610V47Q844 21 825 3T780 -16T736 2T717 47V121Q680 51 600 12T424 -27Q259 -27 165 50T70 266ZM203 266Q203 184 261 138T436 92Q551 92 634 161T717 354V440H428Q324 440 264 396T203 266Z" />
<glyph unicode="b" glyph-name="b" horiz-adv-x="1026" d="M133 377V1393Q133 1421 152 1439T199 1458T245 1440T264 1393V825Q303 880 377 919T543 958Q954 958 954 467Q954 220 846 97T535 -27Q354 -27 244 77T133 377ZM264 377Q264 236 337 164T535 92Q823
92 823 467Q823 654 750 747T535 840Q481 840 433 822T356 777T304 723T273 678L264 659V377Z" />
<glyph unicode="c" glyph-name="c" horiz-adv-x="903" d="M72 220T72 467T181 836T494 958Q613 958 692 913T809 817Q823 797 823 778Q823 752 806 736T764 719Q736 719 715 743Q698 762 685 774T645 804T580 831T494 840Q205 840 205 467Q205 92 494 92Q549 92
599 108T673 140T731 180Q752 195 770 195Q795 195 812 178T829 135Q829 107 803 84Q668 -27 494 -27Q292 -27 182 96Z" />
<glyph unicode="d" glyph-name="d" horiz-adv-x="1026" d="M72 467Q72 958 483 958Q575 958 649 919T762 825V1393Q762 1421 780 1439T827 1458T874 1440T893 1393V377Q893 181 783 77T492 -27Q290 -27 181 96T72 467ZM203 467Q203 92 492 92Q616 92 689 164T762
377V659Q759 666 753 678T723 722T671 777T594 820T492 840Q351 840 277 747T203 467Z" />
<glyph unicode="e" glyph-name="e" horiz-adv-x="954" d="M72 467Q72 702 183 830T494 958Q573 958 636 939T741 885T812 811T857 724T878 638T885 559Q885 529 884 513T875 473T850 439T803 428H205Q205 275 287 185T514 94Q594 94 650 117T760 182Q780 195 797
195Q822 195 839 178T856 135T834 88T778 44T671 -3T514 -27Q303 -27 188 94T72 467ZM205 543H756Q756 603 744 652T705 745T624 815T494 840Q363 840 289 761T205 543Z" />
<glyph unicode="f" glyph-name="f" horiz-adv-x="591" d="M43 842T43 868T60 912T104 930H174V1051Q174 1122 194 1184T256 1295T367 1374T528 1403Q554 1403 572 1385T590 1341T572 1298T528 1280Q413 1280 359 1219T305 1051V930H492Q518 930 535 912T553 868T536
825T492 807H305V49Q305 21 287 3T240 -16T193 2T174 49V807H104Q78 807 61 824Z" />
<glyph unicode="g" glyph-name="g" horiz-adv-x="978" d="M55 -125Q55 -56 96 -2T211 82Q153 101 119 145T84 248Q84 336 166 391Q92 483 92 614Q92 772 192 865T469 958Q600 958 688 907Q718 961 758 989T870 1018Q895 1018 912 1001T930 958T913 916T870 899Q799
899 772 836Q846 746 846 614Q846 456 746 363T469 270Q338 270 248 322Q211 293 211 248Q211 162 362 162H573Q732 162 832 92T932 -117Q932 -220 873 -287T717 -383T492 -412Q425 -412 365 -404T247 -376T148 -324T81 -241T55 -125ZM188 -125Q188 -185 232 -224T342
-280T494 -297Q628 -297 713 -254T799 -117Q799 39 573 39H360Q273 24 231 -18T188 -125ZM225 717T225 614T289 450T469 389T649 450T713 614T649 778T469 840T289 779Z" />
<glyph unicode="h" glyph-name="h" horiz-adv-x="1026" d="M133 49V1393Q133 1421 152 1439T199 1458T245 1440T264 1393V815Q295 877 368 917T537 958Q628 958 696 937T805 881T871 798T904 701T913 596V49Q913 21 895 3T848 -16T801 2T782 49V569Q782 634 772
680T735 765T659 823T537 842Q264 842 264 555V49Q264 21 246 3T199 -16T152 2T133 49Z" />
<glyph unicode="i" glyph-name="i" horiz-adv-x="395" d="M119 1217Q119 1298 197 1298Q274 1298 274 1217Q274 1180 254 1160T197 1139T140 1159T119 1217ZM131 49V881Q131 909 150 927T197 946T243 928T262 881V49Q262 21 244 3T197 -16T150 2T131 49Z" />
<glyph unicode="j" glyph-name="j" horiz-adv-x="397" d="M-96 -343T-96 -317T-79 -274T-35 -256Q38 -256 85 -203T133 -72V881Q133 909 152 927T199 946T245 928T264 881V-72Q264 -202 179 -290T-35 -379Q-61 -379 -78 -361ZM121 1217Q121 1298 199 1298Q276
1298 276 1217Q276 1180 256 1160T199 1139T142 1159T121 1217Z" />
<glyph unicode="k" glyph-name="k" horiz-adv-x="927" d="M133 49V1393Q133 1421 152 1439T199 1458T245 1440T264 1393V535L748 930Q766 946 793 946Q821 946 839 928T858 881Q858 849 831 827L496 559L860 90Q874 74 874 49Q874 21 856 3T809 -16Q776 -16 752
14L389 479L264 379V49Q264 21 246 3T199 -16T152 2T133 49Z" />
<glyph unicode="l" glyph-name="l" horiz-adv-x="448" d="M133 223V1393Q133 1419 153 1438T199 1458Q226 1458 245 1439T264 1393V223Q264 106 346 106Q371 106 389 89T408 45T390 2T346 -16Q243 -16 188 44T133 223Z" />
<glyph unicode="m" glyph-name="m" horiz-adv-x="1654" d="M133 49V881Q133 909 152 927T199 946T245 928T264 881V815Q292 876 363 917T530 958Q651 958 734 919T856 815Q947 958 1155 958Q1246 958 1316 937T1428 881T1496 798T1532 701T1542 596V49Q1542 21
1524 3T1477 -16T1430 2T1411 49V569Q1411 701 1354 771T1155 842Q1026 842 963 778T899 596V49Q899 21 881 3T834 -16T787 2T768 49V569Q768 702 713 772T516 842Q380 842 322 768T264 555V49Q264 21 246 3T199 -16T152 2T133 49Z" />
<glyph unicode="n" glyph-name="n" horiz-adv-x="1026" d="M133 49V881Q133 909 152 927T199 946T245 928T264 881V815Q295 877 368 917T537 958Q628 958 696 937T805 881T871 798T904 701T913 596V49Q913 21 895 3T848 -16T801 2T782 49V569Q782 634 772 680T735
765T659 823T537 842Q264 842 264 555V49Q264 21 246 3T199 -16T152 2T133 49Z" />
<glyph unicode="o" glyph-name="o" horiz-adv-x="1003" d="M72 221T72 467T185 835T502 958Q707 958 819 836T932 467T820 97T502 -27Q299 -27 186 97ZM205 467Q205 92 502 92T799 467Q799 840 502 840T205 467Z" />
<glyph unicode="p" glyph-name="p" horiz-adv-x="1042" d="M133 -346V881Q133 908 152 927T199 946T245 927T264 881V815Q296 873 371 915T543 958Q748 958 859 836T971 467Q971 220 859 97T543 -27Q448 -27 374 15T264 117V-346Q264 -372 245 -392T199 -412T153
-392T133 -346ZM260 656T260 467T337 185T543 92Q687 92 762 185T838 467Q838 655 761 747T539 840Q416 840 338 748Z" />
<glyph unicode="q" glyph-name="q" horiz-adv-x="1003" d="M72 465Q72 712 181 835T492 958Q673 958 783 855T893 555V-346Q893 -374 874 -393T827 -412T781 -393T762 -346V106Q723 51 649 12T483 -27Q72 -27 72 465ZM203 465Q203 278 277 185T492 92Q546 92 593
110T670 155T722 208T753 254L762 272V555Q762 696 689 768T492 840Q203 840 203 465Z" />
<glyph unicode="r" glyph-name="r" horiz-adv-x="632" d="M133 49V881Q133 909 152 927T199 946T245 928T264 881V791Q296 864 371 909T549 954Q575 954 593 936T612 891T594 846T549 827Q412 827 338 740T264 508V49Q264 21 246 3T199 -16T152 2T133 49Z" />
<glyph unicode="s" glyph-name="s" horiz-adv-x="868" d="M68 162Q68 187 85 204T127 221T172 201Q273 100 432 100Q528 100 588 135T649 246Q649 284 626 313T565 360T479 396T380 430T282 470T195 524T134 601T111 709Q111 831 198 893T424 956Q637 956 735
825Q750 805 750 786Q750 761 733 744T690 727T647 745Q602 788 551 809T424 831Q345 831 294 803T242 709Q242 671 265 641T326 592T412 554T511 520T609 480T696 427T757 352T780 246Q780 156 733 94T609 3T432 -25Q316 -25 222 20T82 123Q68 143 68 162Z" />
<glyph unicode="t" glyph-name="t" horiz-adv-x="571" d="M43 842T43 868T60 912T104 930H184V1145Q184 1171 204 1190T250 1210Q277 1210 296 1191T315 1145V930H449Q475 930 492 912T510 868T493 825T449 807H315V242Q315 177 347 142T434 106Q461 106 479 89T498
45T480 2T434 -16Q315 -16 250 55T184 242V807H104Q78 807 61 824Z" />
<glyph unicode="u" glyph-name="u" horiz-adv-x="987" d="M113 346V881Q113 909 131 927T178 946Q205 946 224 927T244 881V346Q244 292 254 251T291 173T368 118T494 98T620 117T696 173T732 250T743 346V881Q743 908 763 927T811 946Q837 946 855 928T874 881V346Q874
283 865 232T831 131T765 48T655 -6T494 -27T334 -7T224 47T157 131T122 232T113 346Z" />
<glyph unicode="v" glyph-name="v" horiz-adv-x="897" d="M33 881Q33 909 51 927T98 946Q143 946 160 903L449 197L737 903Q754 946 799 946Q827 946 845 928T864 881Q864 870 858 852L510 25Q492 -16 449 -16Q405 -16 387 25L39 852Q33 870 33 881Z" />
<glyph unicode="w" glyph-name="w" horiz-adv-x="1310" d="M35 881Q35 909 53 927T100 946Q146 946 162 903L399 225L594 903Q599 920 615 933T655 946T695 933T717 903L911 225L1149 903Q1165 946 1210 946Q1238 946 1257 928T1276 881Q1276 867 1270 852L969
27Q953 -16 907 -16Q885 -16 868 -3T844 31L655 680L467 31Q461 10 443 -3T403 -16Q358 -16 342 27L41 852Q35 867 35 881Z" />
<glyph unicode="x" glyph-name="x" horiz-adv-x="843" d="M47 49Q47 73 59 88L340 475L68 842Q55 864 55 881Q55 909 74 927T121 946Q154 946 174 920L422 580L670 920Q690 946 723 946Q751 946 769 928T788 881Q788 862 776 842L504 475L784 88Q797 72 797 49Q797
21 778 3T731 -16Q695 -16 678 10L422 373L166 10Q149 -16 113 -16Q85 -16 66 2T47 49Z" />
<glyph unicode="y" glyph-name="y" horiz-adv-x="897" d="M10 -376T10 -350T28 -307T72 -289Q124 -289 164 -273T231 -237T286 -167T330 -82T378 32Q379 34 379 35T381 39L39 852Q33 870 33 881Q33 909 51 927T98 946Q143 946 160 903L449 197L737 903Q754 946
799 946Q827 946 845 928T864 881Q864 870 858 852L455 -109Q390 -266 302 -339T72 -412Q46 -412 28 -394Z" />
<glyph unicode="z" glyph-name="z" horiz-adv-x="829" d="M49 61Q49 84 63 102L580 807H139Q113 807 96 824T78 868T95 912T139 930H700Q726 930 744 912T762 868Q762 846 748 827L238 127H711Q737 127 755 108T774 63T756 19T711 0H111Q85 0 67 17T49 61Z" />
<glyph unicode="{" glyph-name="braceleft" horiz-adv-x="692" d="M51 586T51 606T64 639T98 653H113Q160 653 193 660T257 686T302 745T317 844Q317 910 305 1036T293 1274Q293 1320 309 1361T359 1436T450 1490T582 1511Q605 1511 622 1494T639 1454T622 1414T582
1397Q430 1397 430 1247Q430 1200 438 1059T446 860Q446 748 382 677T199 606Q318 606 382 536T446 352Q446 303 438 158T430 -35Q430 -184 582 -184Q605 -184 622 -201T639 -242T622 -282T582 -299Q507 -299 450 -279T360 -224T310 -147T293 -59Q293 -5 305 154T317
371Q317 430 302 468T257 526T194 552T113 559H98Q78 559 65 572Z" />
<glyph unicode="|" glyph-name="bar" horiz-adv-x="442" d="M154 -260V1587Q154 1615 173 1635T221 1655T269 1635T289 1587V-260Q289 -288 269 -308T221 -328T174 -308T154 -260Z" />
<glyph unicode="}" glyph-name="braceright" horiz-adv-x="692" d="M53 -265T53 -242T70 -202T111 -184Q262 -184 262 -35Q262 13 254 158T246 352Q246 465 310 535T494 606Q375 606 311 677T246 860Q246 918 254 1059T262 1247Q262 1397 111 1397Q88 1397 71
1414T53 1454T70 1494T111 1511Q255 1511 327 1442T399 1274Q399 1163 387 1037T375 844Q375 785 390 746T436 687T499 660T580 653H594Q614 653 627 640T641 606T628 573T594 559H580Q533 559 500 552T436 526T391 469T375 371Q375 314 387 155T399 -59Q399 -105
383 -147T333 -223T243 -278T111 -299Q88 -299 71 -282Z" />
<glyph unicode="~" glyph-name="asciitilde" horiz-adv-x="976" d="M78 561Q78 574 82 586Q103 649 158 691T301 733Q354 733 408 712T500 667T585 621T674 600Q710 600 736 615T771 644T793 684Q810 717 844 717Q866 717 881 702T897 664Q897 651 893 639Q872
576 817 534T674 492Q618 492 564 513T472 558T389 604T301 625Q265 625 239 610T204 581T182 541Q166 508 131 508Q109 508 94 523T78 561Z" />
</font>
</defs>
</svg>
